<svg width="682.66" height="682.66" version="1.1" viewBox="0 0 682.66 682.66" xml:space="preserve" xmlns="http://www.w3.org/2000/svg"><defs><clipPath id="clipPath834"><circle transform="scale(1,-1)" cx="540.11" cy="-731.24" r="256" style="fill:#fff"/></clipPath></defs>
   <g transform="matrix(1.3333 0 0 -1.3333 -378.82 1316.3)" clip-path="url(#clipPath834)"><g transform="matrix(1.0052 0 0 1.0052 -.81259 -1.7976)" style="stroke-width:.9948"><path d="m155.6 344.23h310.32v764.01h-310.32z" style="fill:#9283be"/><path d="m462.35 344.23h119.13v764.01h-119.13z" style="fill:#d7df23"/><path d="m576.8 344.23h37.607v764.01h-37.607z" style="fill:#ee3d8f"/><path d="m614.4 344.23h305.21v764.01h-305.21z" style="fill:#f79420"/><g transform="matrix(1.5584 0 0 1.5584 19.96 334.69)" style="stroke-width:.63836"><g clip-path="url(#clipPath111)" style="stroke-width:.63836"><g transform="translate(422.91 259.54)" style="stroke-width:.63836"><path d="m0 0-13.552-1.142c-11.98-0.761-20.748-3.326-26.307-7.691-0.513-0.403-0.977-0.837-1.443-1.271v23.042c3.527 1.076 7.252 1.896 11.189 2.442 4.036 0.558 7.754 0.837 11.155 0.837 4.72 0 8.438-0.47 11.153-1.408 2.716-0.94 4.694-2.501 5.94-4.683 1.242-2.183 1.865-5.203 1.865-9.06zm0-29.314c-1.826-1.827-3.883-3.159-6.167-3.997s-4.619-1.256-7.005-1.256c-3.604 0-6.346 0.811-8.224 2.437-1.879 1.623-2.816 3.984-2.816 7.08 0 3.147 1.041 5.596 3.121 7.347 2.081 1.752 5.406 2.805 9.974 3.16l11.117 0.838zm-139.03-1.802c-6.561-1.36-12.647-2.081-18.198-2.081-6.041 0-10.811 0.572-14.313 1.714-3.503 1.142-6.081 2.994-7.729 5.557-1.65 2.563-2.602 6.079-2.855 10.546h43.095zm-39.44 45.659c2.335 3.146 5.81 4.719 10.431 4.719 4.569 0 7.968-1.56 10.203-4.682 2.233-3.121 3.427-8.413 3.578-15.874h-27.942c0.151 7.41 1.395 12.688 3.73 15.837m198.27 5.748c-2.691 5.101-6.828 8.768-12.41 11.002-5.585 2.233-12.918 3.35-22.005 3.35-4.365 0-8.96-0.305-13.78-0.914-4.717-0.595-9.013-1.438-12.903-2.519v2.138h-24.365v-15.642c-1.257 3.606-3.004 6.634-5.296 9.018-5.076 5.279-12.004 7.919-20.785 7.919-4.925 0-9.467-0.838-13.629-2.512-4.163-1.676-7.766-4.087-10.813-7.233h-1.14l-1.676 8.45h-20.025v-12.294c-0.571 0.84-1.154 1.667-1.79 2.434-6.166 7.436-15.14 11.155-26.915 11.155-8.223 0-15.227-1.65-21.014-4.949-5.786-3.3-10.191-8.16-13.21-14.581-3.022-6.421-4.53-14.2-4.53-23.336 0-10.153 1.623-18.401 4.873-24.745 3.247-6.346 8.235-11.028 14.96-14.048 6.726-3.019 15.394-4.53 26.002-4.53 7.228 0 14.436 0.779 21.624 2.247v-0.648h24.366v56.799c1.774 2.233 4.034 3.934 6.776 5.102 2.74 1.166 5.557 1.751 8.45 1.751 3.857 0 6.776-1.003 8.756-3.008s2.97-5.419 2.97-10.24v-50.404h46.411v5.407c1.626-1.533 3.501-2.852 5.669-3.922 4.06-2.005 8.883-3.008 14.465-3.008 4.67 0 8.91 0.799 12.717 2.399 3.806 1.599 6.929 4.046 9.364 7.347h1.144l1.673-8.223h20.101v49.49c0 8.729-1.344 15.647-4.035 20.748" style="fill:#fff"/></g><g transform="translate(369.42 305)" style="stroke-width:.63836"><path d="m0 0c5.026 0 8.78 1.091 11.268 3.274 2.488 2.182 3.732 5.304 3.732 9.365 0 4.112-1.244 7.259-3.732 9.442-2.488 2.182-6.242 3.273-11.268 3.273-5.077 0-8.857-1.091-11.345-3.273-2.488-2.183-3.73-5.33-3.73-9.442 0-4.061 1.256-7.183 3.768-9.365 2.512-2.183 6.282-3.274 11.307-3.274" style="fill:#fff"/></g></g></g></g></g></svg>
